<?xml version="1.0" standalone="no"?>
<!DOCTYPE svg PUBLIC "-//W3C//DTD SVG 20010904//EN"
 "http://www.w3.org/TR/2001/REC-SVG-20010904/DTD/svg10.dtd">
<svg version="1.0" xmlns="http://www.w3.org/2000/svg"
 width="256.000000pt" height="256.000000pt" viewBox="0 0 256.000000 256.000000"
 preserveAspectRatio="xMidYMid meet">
<metadata>
Created by potrace 1.11, written by Peter Selinger 2001-2013
</metadata>
<g transform="translate(0.000000,256.000000) scale(0.100000,-0.100000)"
fill="#000000" stroke="none">
<path d="M1156 2439 c0 -53 4 -101 8 -107 4 -7 4 -13 -1 -14 -4 0 12 -4 37 -7
25 -4 51 -3 58 2 7 6 12 6 12 0 0 -11 29 -11 47 0 6 4 14 1 17 -5 5 -10 7 -10
12 -1 3 7 11 10 19 7 16 -7 22 44 15 146 l-5 75 -110 0 -110 0 1 -96z"/>
<path d="M366 2512 c-16 -3 -17 -44 -14 -660 l3 -657 27 -72 c14 -40 38 -93
53 -118 22 -38 135 -181 194 -245 23 -26 49 -56 111 -130 30 -36 57 -67 60
-70 3 -3 41 -48 85 -100 44 -52 148 -174 232 -272 l151 -177 168 197 c193 225
181 212 272 317 38 44 76 89 85 100 9 11 80 97 158 190 103 122 152 190 176
242 63 136 63 135 63 815 0 339 -2 622 -5 630 -4 10 -72 13 -358 11 -193 0
-355 -2 -359 -2 -5 -1 -8 -30 -8 -66 l0 -65 295 0 295 0 0 -558 c0 -612 0
-617 -60 -728 -30 -55 -81 -119 -270 -339 -47 -55 -142 -165 -209 -245 -68
-80 -151 -176 -184 -213 l-59 -68 -33 38 c-18 21 -42 49 -54 63 -11 14 -31 36
-44 50 -13 14 -61 70 -107 125 -46 55 -86 102 -90 105 -4 4 -102 119 -185 219
-11 13 -25 29 -30 35 -70 76 -159 194 -185 246 -55 110 -59 160 -59 744 l-1
526 295 0 295 0 0 68 0 67 -343 0 c-189 0 -351 -2 -361 -3z"/>
<path d="M841 2205 c-1 -7 -37 -10 -96 -9 l-95 2 -1 -42 c0 -22 -1 -222 -1
-443 0 -386 3 -442 31 -488 3 -5 6 -15 7 -22 4 -26 88 -136 199 -259 6 -6 26
-30 45 -54 19 -23 50 -58 68 -77 17 -18 32 -35 32 -38 0 -6 24 -35 70 -84 19
-20 44 -49 54 -64 11 -14 23 -24 28 -21 4 3 8 112 8 243 0 251 -1 256 -46 264
-36 8 -84 29 -84 38 0 5 -3 8 -8 6 -4 -1 -14 4 -22 11 -8 7 -24 20 -35 30 -48
40 -115 150 -107 175 1 4 -2 7 -6 7 -5 0 -9 6 -9 13 -1 6 -4 37 -6 67 -5 49
-1 82 17 158 8 36 59 124 78 136 10 6 18 15 18 21 0 12 106 85 124 85 7 0 16
3 20 7 3 4 14 8 22 9 42 6 42 8 43 163 2 147 1 150 -21 157 -13 4 -27 7 -33 5
-28 -9 -285 -5 -289 4 -3 7 -5 6 -5 0z"/>
<path d="M1405 2199 c-4 -5 -10 -7 -15 -4 -4 3 -15 2 -23 -1 -13 -5 -15 -31
-16 -154 l0 -149 76 -36 c106 -51 176 -127 209 -228 18 -55 27 -217 12 -217
-5 0 -6 -4 -3 -10 11 -18 -55 -138 -100 -185 -25 -25 -49 -45 -53 -45 -5 0
-17 -8 -28 -17 -10 -10 -39 -25 -64 -34 l-45 -16 -2 -259 -1 -259 36 41 c49
55 88 101 137 159 22 27 45 53 50 59 6 6 30 36 55 66 24 30 55 65 67 77 13 12
23 25 23 28 0 3 11 18 25 33 51 55 62 68 82 97 11 17 31 59 44 95 22 59 24 81
24 237 0 95 4 173 8 173 5 0 5 5 2 10 -10 16 -12 110 -2 110 4 0 5 5 1 11 -4
7 -8 96 -10 198 -2 102 -4 194 -4 203 0 11 -6 16 -20 13 -11 -2 -20 1 -20 6 0
6 -6 7 -12 2 -19 -11 -108 -10 -108 2 0 7 -3 7 -8 0 -8 -12 -192 -14 -192 -2
0 5 -6 5 -12 0 -16 -10 -57 -11 -85 -1 -12 4 -25 3 -28 -3z"/>
<path d="M1110 1697 c-125 -98 -144 -268 -44 -385 30 -36 98 -82 119 -82 10 0
0 503 -10 507 -5 1 -35 -16 -65 -40z"/>
<path d="M1356 1733 c-3 -4 -6 -118 -6 -255 0 -194 3 -248 13 -248 16 0 86 48
110 75 10 11 30 44 44 74 58 120 3 279 -118 341 -20 11 -39 16 -43 13z"/>
</g>
</svg>
